HIERARCHY
ROOT Hips
{
	OFFSET 0.000000 0.000000 0.000000
	CHANNELS 6 Xposition Yposition Zposition Zrotation Yrotation Xrotation 
	JOINT LeftUpLeg_virtual
	{
		OFFSET 0.000000 0.000000 0.000000
		CHANNELS 3 Zrotation Yrotation Xrotation
		JOINT LeftUpLeg
		{
			OFFSET 8.479694 -4.795517 -0.379053
			CHANNELS 3 Zrotation Yrotation Xrotation
			JOINT LeftLeg
			{
				OFFSET 0.485052 -32.551468 0.112863
				CHANNELS 3 Zrotation Yrotation Xrotation
				JOINT LeftFoot
				{
					OFFSET 0.438033 -32.635670 -3.012641
					CHANNELS 3 Zrotation Yrotation Xrotation
					JOINT LeftToeBase
					{
						OFFSET 0.970169 -13.225353 11.864223
						CHANNELS 3 Zrotation Yrotation Xrotation
						End Site
						{
							OFFSET 0.000000 0.000000 0.000000
						}
					}
				}
			}
		}
	}
	JOINT RightUpLeg_virtual
	{
		OFFSET 0.000000 0.000000 0.000000
		CHANNELS 3 Zrotation Yrotation Xrotation
		JOINT RightUpLeg
		{
			OFFSET -8.479694 -4.795517 -0.379053
			CHANNELS 3 Zrotation Yrotation Xrotation
			JOINT RightLeg
			{
				OFFSET -0.484100 -32.551483 0.112903
				CHANNELS 3 Zrotation Yrotation Xrotation
				JOINT RightFoot
				{
					OFFSET -0.438985 -32.635651 -3.012681
					CHANNELS 3 Zrotation Yrotation Xrotation
					JOINT RightToeBase
					{
						OFFSET -0.970169 -13.225354 11.864223
						CHANNELS 3 Zrotation Yrotation Xrotation
						End Site
						{
							OFFSET 0.000000 0.000000 0.000000
						}
					}
				}
			}
		}
	}
	JOINT Spine_virtual
	{
		OFFSET 0.000000 0.000000 0.000000
		CHANNELS 3 Zrotation Yrotation Xrotation
		JOINT Spine
		{
			OFFSET 0.000000 7.722015 1.166203
			CHANNELS 3 Zrotation Yrotation Xrotation
			JOINT Spine1
			{
				OFFSET 0.000000 12.024086 0.248766
				CHANNELS 3 Zrotation Yrotation Xrotation
				JOINT Spine2
				{
					OFFSET -0.000000 11.503036 -0.491240
					CHANNELS 3 Zrotation Yrotation Xrotation
					JOINT Neck_virtual
					{
						OFFSET 0.000000 0.000000 0.000000
						CHANNELS 3 Zrotation Yrotation Xrotation
						JOINT Neck
						{
							OFFSET 0.000000 18.430687 -3.123054
							CHANNELS 3 Zrotation Yrotation Xrotation
							JOINT Head
							{
								OFFSET -0.000000 9.051071 1.034021
								CHANNELS 3 Zrotation Yrotation Xrotation
								End Site
								{
									OFFSET 0.000000 0.000000 0.000000
								}
							}
						}
					}
					JOINT LeftShoulder_virtual
					{
						OFFSET 0.000000 0.000000 0.000000
						CHANNELS 3 Zrotation Yrotation Xrotation
						JOINT LeftShoulder
						{
							OFFSET 6.197824 13.665230 -4.064723
							CHANNELS 3 Zrotation Yrotation Xrotation
							JOINT LeftArm
							{
								OFFSET 7.778132 -0.187073 -1.709282
								CHANNELS 3 Zrotation Yrotation Xrotation
								JOINT LeftForeArm
								{
									OFFSET 21.954697 0.000000 -2.041093
									CHANNELS 3 Zrotation Yrotation Xrotation
									JOINT LeftHand
									{
										OFFSET 22.992908 0.000000 -0.870901
										CHANNELS 3 Zrotation Yrotation Xrotation
										End Site
										{
											OFFSET 0.000000 0.000000 0.000000
										}
									}
								}
							}
						}
					}
					JOINT RightShoulder_virtual
					{
						OFFSET 0.000000 0.000000 0.000000
						CHANNELS 3 Zrotation Yrotation Xrotation
						JOINT RightShoulder
						{
							OFFSET -6.197824 13.665230 -4.064723
							CHANNELS 3 Zrotation Yrotation Xrotation
							JOINT RightArm
							{
								OFFSET -7.778132 -0.187073 -1.709282
								CHANNELS 3 Zrotation Yrotation Xrotation
								JOINT RightForeArm
								{
									OFFSET -21.954697 0.000000 -2.041093
									CHANNELS 3 Zrotation Yrotation Xrotation
									JOINT RightHand
									{
										OFFSET -22.992908 0.000000 -0.870901
										CHANNELS 3 Zrotation Yrotation Xrotation
										End Site
										{
											OFFSET 0.000000 0.000000 0.000000
										}
									}
								}
							}
						}
					}
				}
			}
		}
	}
}
MOTION
Frames: 9
Frame Time: 0.033333
14.375056 80.900070 -13.529593 -179.898222 -21.299241 179.990880 -1.211882 -0.369625 15.422733 3.522622 -6.641290 -22.323741 4.841399 4.970809 25.294564 1.099244 -8.348826 -12.232475 0.000000 0.000000 0.000000 2.836516 -0.948964 16.631688 -5.909355 12.397157 -24.269073 -0.372726 9.255641 31.206352 12.565474 4.572008 -15.243891 0.000000 0.000000 0.000000 4.401566 1.945379 0.633940 -3.248817 -4.967321 -11.814819 0.991297 -1.698544 6.714351 0.005679 -0.031769 -0.016408 0.337372 0.046059 8.634373 -1.694716 1.646763 -2.022390 0.000000 0.000000 0.000000 2.503017 0.775602 5.728694 -13.745103 -11.268368 3.882747 -54.702295 -4.948759 55.524005 0.439042 -45.138019 13.485599 0.000000 0.000000 0.000000 -2.367886 2.238985 4.923017 32.986033 11.378690 16.882833 38.028130 14.649531 10.481461 -2.691961 24.830446 -3.853433 0.000000 0.000000 0.000000 
14.183928 80.899475 -13.667348 -179.778816 -21.395699 179.904218 -1.119440 -0.358739 15.319841 3.262600 -5.957260 -22.198943 4.861852 5.196221 25.429081 1.185169 -8.248147 -12.645505 0.000000 0.000000 0.000000 2.729737 -0.692104 16.577033 -6.190024 12.738892 -24.186202 -0.437668 9.969830 31.158920 12.528453 4.573918 -15.036943 0.000000 0.000000 0.000000 4.657202 1.775071 0.713123 -2.966780 -4.901430 -11.640886 1.057935 -1.812847 6.773864 -0.008242 -0.094754 -0.031634 0.413172 -0.009864 8.548027 -1.745855 1.653198 -2.094695 0.000000 0.000000 0.000000 2.505154 0.688736 5.782828 -14.205542 -10.741883 3.566650 -53.800611 -5.351170 49.617844 1.686396 -40.719990 12.615808 0.000000 0.000000 0.000000 -2.319202 2.092503 4.998178 32.963234 11.148093 16.671507 38.393057 13.980953 9.948268 -2.671973 24.056186 -3.431435 0.000000 0.000000 0.000000 
13.982236 80.907341 -13.803516 -179.804183 -21.045582 179.864713 -1.087953 -0.366303 15.218000 2.961173 -5.671488 -21.952599 4.808086 5.160599 25.642745 1.319229 -8.093410 -12.668944 0.000000 0.000000 0.000000 2.763732 -0.671553 16.478578 -6.322141 12.678705 -23.985763 -0.368692 10.155601 31.237822 12.570785 4.669316 -15.072388 0.000000 0.000000 0.000000 4.757851 1.931909 0.937074 -2.412777 -4.462641 -11.545790 1.004907 -2.021500 6.870334 -0.007950 -0.056730 -0.051464 0.415245 -0.085369 8.507211 -1.708483 1.634366 -2.361088 0.000000 0.000000 0.000000 2.389053 0.721217 5.917670 -14.655395 -9.730042 3.016383 -53.317194 -5.145374 37.479495 3.675254 -33.500418 11.146321 0.000000 0.000000 0.000000 -2.436987 2.121109 5.007710 32.594496 10.140040 16.116151 38.999984 12.623393 9.146271 -2.857266 23.735580 -3.440246 0.000000 0.000000 0.000000 
13.784592 80.930344 -13.972340 -179.781658 -20.568886 179.847118 -1.041064 -0.213260 15.067512 2.705398 -5.570328 -21.645990 4.745304 5.085827 25.790719 1.507935 -7.872891 -12.696353 0.000000 0.000000 0.000000 2.873513 -0.582788 16.429236 -6.523874 12.656074 -23.785248 -0.310818 10.301843 31.229517 12.654414 4.776450 -15.051053 0.000000 0.000000 0.000000 4.751039 2.014817 1.129116 -1.584416 -3.955198 -11.485952 0.970369 -2.049144 6.999035 0.009779 -0.101911 -0.041708 0.353040 -0.180021 8.470571 -1.550526 1.644728 -2.802910 0.000000 0.000000 0.000000 2.175282 0.616539 5.964372 -14.973424 -8.707779 2.560237 -54.153578 -3.502172 24.114744 5.201901 -26.242113 10.752775 0.000000 0.000000 0.000000 -2.673791 2.040539 4.965670 31.966890 8.626638 15.351649 39.902553 10.881488 8.121792 -3.127896 23.694797 -3.274967 0.000000 0.000000 0.000000 
13.622834 80.969696 -14.134141 -179.753025 -20.146633 179.832174 -1.006101 -0.167596 15.194084 2.535730 -5.448301 -21.643591 4.684862 5.105300 25.959433 1.683549 -7.637303 -12.585840 0.000000 0.000000 0.000000 3.009692 -0.413534 16.458751 -6.735518 12.614724 -23.590194 -0.302360 10.403816 31.068902 12.677649 4.824303 -14.971027 0.000000 0.000000 0.000000 4.666227 2.014848 1.267477 -0.741972 -3.447727 -11.435379 0.861672 -1.983716 7.206732 -0.011755 -0.156437 0.000423 0.267534 -0.315163 8.500006 -1.366622 1.704544 -3.332110 0.000000 0.000000 0.000000 2.030068 0.509087 6.082822 -15.073906 -7.782662 2.432424 -56.073848 -0.559336 14.809797 6.375183 -20.823358 11.058530 0.000000 0.000000 0.000000 -2.931698 1.993908 4.986789 31.262063 6.705035 14.407330 41.054338 9.170098 6.692610 -3.360544 23.567378 -2.822521 0.000000 0.000000 0.000000 
13.530210 81.025330 -14.327707 -179.756195 -19.887131 179.850697 -1.036229 -0.177656 15.390143 2.508401 -5.458052 -21.672962 4.620969 5.124092 25.890659 1.899063 -7.399638 -12.427278 0.000000 0.000000 0.000000 3.109357 -0.206234 16.608093 -6.857782 12.446932 -23.437185 -0.298406 10.430579 30.800369 12.674921 4.838890 -14.839619 0.000000 0.000000 0.000000 4.448428 2.221242 1.331655 -0.080553 -2.907352 -11.301768 0.710863 -2.162364 7.491577 -0.050503 -0.092199 0.007875 0.205871 -0.274232 8.641533 -1.061778 1.699097 -3.905197 0.000000 0.000000 0.000000 1.973291 0.341881 6.336883 -14.448632 -7.284044 2.543966 -57.760389 2.799220 10.663224 7.081257 -18.497607 11.826719 0.000000 0.000000 0.000000 -3.121402 1.870667 5.194998 30.570892 4.490443 13.247277 42.296319 7.823726 4.852487 -3.586597 22.813803 -2.790217 0.000000 0.000000 0.000000 
13.441692 81.076775 -14.582685 -179.713793 -19.764838 179.908002 -1.067324 -0.001335 15.559477 2.640624 -5.660437 -21.710460 4.572663 5.165472 25.745297 2.035772 -7.148648 -12.150627 0.000000 0.000000 0.000000 3.167477 -0.011955 16.809258 -6.839143 12.154649 -23.336328 -0.283140 10.403028 30.475935 12.639198 4.880071 -14.611940 0.000000 0.000000 0.000000 4.210584 2.311011 1.387704 0.350218 -2.399592 -11.118963 0.600734 -2.386123 7.790054 0.016353 -0.301365 -0.020777 0.061136 -0.402299 8.977777 -0.685623 1.759297 -4.483145 0.000000 0.000000 0.000000 1.811188 0.366140 6.584131 -13.118670 -6.834067 2.741238 -58.503152 5.429741 9.357067 7.538688 -18.126301 12.745489 0.000000 0.000000 0.000000 -3.387001 1.948029 5.562353 29.955167 2.435864 12.126619 43.387144 7.089998 3.052324 -3.726552 21.446394 -2.515956 0.000000 0.000000 0.000000 
13.382925 81.097420 -14.804760 -179.709285 -19.772935 179.930064 -1.118623 -0.008682 15.722424 2.764054 -5.827024 -21.724743 4.422339 5.138674 25.652867 2.149599 -6.903594 -11.948009 0.000000 0.000000 0.000000 3.138000 0.149072 17.055098 -6.761756 11.859505 -23.275297 -0.282331 10.326194 30.133408 12.586338 4.958456 -14.486611 0.000000 0.000000 0.000000 4.070067 2.248273 1.578463 0.578624 -2.285215 -10.875564 0.461263 -2.216288 8.101683 -0.011165 -0.114667 -0.021873 -0.116587 -0.395505 9.262260 -0.350113 1.884264 -5.064650 0.000000 0.000000 0.000000 1.724632 0.277161 6.810132 -11.497585 -6.514183 2.795356 -58.219160 6.764388 8.461017 7.822271 -18.594468 13.358166 0.000000 0.000000 0.000000 -3.463307 1.816524 5.866119 29.499789 0.621419 11.059307 44.124419 6.721652 1.519386 -3.687653 19.643026 -2.196612 0.000000 0.000000 0.000000 
13.313122 81.097206 -14.996133 -179.706963 -19.949642 -179.989828 -1.180049 -0.157923 15.783517 2.847737 -5.806655 -21.713851 4.311172 5.060936 25.620798 2.172777 -6.776618 -11.938588 0.000000 0.000000 0.000000 3.088726 0.143508 17.253360 -6.665305 11.547401 -23.321333 -0.239994 10.259259 30.008935 12.487097 5.055867 -14.402130 0.000000 0.000000 0.000000 4.126483 2.075194 1.851515 0.458214 -2.044759 -10.729589 0.312669 -2.104988 8.339132 -0.019562 -0.095062 0.006713 -0.266140 -0.381654 9.575408 0.112645 1.897847 -5.495278 0.000000 0.000000 0.000000 1.560307 0.297710 7.025700 -10.093518 -6.263596 2.752448 -57.493534 6.985013 6.826558 7.936785 -19.302065 13.619754 0.000000 0.000000 0.000000 -3.546233 1.797851 6.112652 29.211401 -0.821305 10.224641 44.411919 6.664554 0.614711 -3.569695 17.872698 -1.948773 0.000000 0.000000 0.000000 
